<svg width="17" height="17" viewBox="0 0 17 17" fill="none" xmlns="http://www.w3.org/2000/svg">
<path d="M15.1667 6.18004V3.15337C15.1667 2.21337 14.74 1.83337 13.68 1.83337H10.9867C9.92667 1.83337 9.5 2.21337 9.5 3.15337V6.17337C9.5 7.12004 9.92667 7.49337 10.9867 7.49337H13.68C14.74 7.50004 15.1667 7.12004 15.1667 6.18004Z" stroke="#42526B" stroke-width="1.5" stroke-linecap="round" stroke-linejoin="round"/>
<path d="M15.1667 13.68V10.9867C15.1667 9.92667 14.74 9.5 13.68 9.5H10.9867C9.92667 9.5 9.5 9.92667 9.5 10.9867V13.68C9.5 14.74 9.92667 15.1667 10.9867 15.1667H13.68C14.74 15.1667 15.1667 14.74 15.1667 13.68Z" stroke="#42526B" stroke-width="1.5" stroke-linecap="round" stroke-linejoin="round"/>
<path d="M7.5001 6.18004V3.15337C7.5001 2.21337 7.07344 1.83337 6.01344 1.83337H3.3201C2.2601 1.83337 1.83344 2.21337 1.83344 3.15337V6.17337C1.83344 7.12004 2.2601 7.49337 3.3201 7.49337H6.01344C7.07344 7.50004 7.5001 7.12004 7.5001 6.18004Z" stroke="#42526B" stroke-width="1.5" stroke-linecap="round" stroke-linejoin="round"/>
<path d="M7.5001 13.68V10.9867C7.5001 9.92667 7.07344 9.5 6.01344 9.5H3.3201C2.2601 9.5 1.83344 9.92667 1.83344 10.9867V13.68C1.83344 14.74 2.2601 15.1667 3.3201 15.1667H6.01344C7.07344 15.1667 7.5001 14.74 7.5001 13.68Z" stroke="#42526B" stroke-width="1.5" stroke-linecap="round" stroke-linejoin="round"/>
</svg>
