<svg width="24" height="25" viewBox="0 0 24 25" fill="none" xmlns="http://www.w3.org/2000/svg">
<path d="M1 1H2.95827C4.17375 1 5.13037 2.04666 5.02908 3.25088L4.09496 14.4603C3.9374 16.2947 5.38921 17.8703 7.23493 17.8703H19.2209C20.8415 17.8703 22.2596 16.5423 22.3834 14.933L22.9911 6.49216C23.1262 4.62392 21.7081 3.10457 19.8286 3.10457H5.29919" stroke="white" stroke-width="1.8" stroke-miterlimit="10" stroke-linecap="round" stroke-linejoin="round"/>
<path d="M17.0374 23.5087C17.8144 23.5087 18.4442 22.8789 18.4442 22.1019C18.4442 21.325 17.8144 20.6951 17.0374 20.6951C16.2605 20.6951 15.6306 21.325 15.6306 22.1019C15.6306 22.8789 16.2605 23.5087 17.0374 23.5087Z" stroke="white" stroke-width="1.8" stroke-miterlimit="10" stroke-linecap="round" stroke-linejoin="round"/>
<path d="M8.034 23.5087C8.81095 23.5087 9.4408 22.8789 9.4408 22.1019C9.4408 21.325 8.81095 20.6951 8.034 20.6951C7.25704 20.6951 6.6272 21.325 6.6272 22.1019C6.6272 22.8789 7.25704 23.5087 8.034 23.5087Z" stroke="white" stroke-width="1.8" stroke-miterlimit="10" stroke-linecap="round" stroke-linejoin="round"/>
<path d="M8.87793 7.75256H22.3832" stroke="white" stroke-width="1.8" stroke-miterlimit="10" stroke-linecap="round" stroke-linejoin="round"/>
</svg>
