<svg width="40" height="40" viewBox="0 0 40 40" fill="none" xmlns="http://www.w3.org/2000/svg">
<rect width="40" height="40" rx="12" fill="#E8EAFA"/>
<path d="M27.2727 13C27.6744 13 28 13.3234 28 13.7222V25.2825C28 25.6788 27.6689 26 27.2787 26H14.1759C13.7775 26 13.4545 25.6787 13.4545 25.2825V24.5556H26.5455V16.1056L20.7273 21.3056L13.4545 14.8056V13.7222C13.4545 13.3234 13.7802 13 14.1818 13H27.2727ZM17.8182 21.6667V23.1111H12V21.6667H17.8182ZM15.6364 18.0556V19.5H12V18.0556H15.6364ZM26.2297 14.4444H15.2248L20.7273 19.3623L26.2297 14.4444Z" fill="#180E54"/>
</svg>
