<svg width="40" height="40" viewBox="0 0 40 40" fill="none" xmlns="http://www.w3.org/2000/svg">
<rect width="40" height="40" rx="12" fill="#E8EAFA"/>
<path d="M20.5 26.6569L24.6247 22.5563C26.9028 20.2917 26.9028 16.62 24.6247 14.3553C22.3467 12.0907 18.6533 12.0907 16.3752 14.3553C14.0971 16.62 14.0971 20.2917 16.3752 22.5563L20.5 26.6569ZM20.5 29L15.1967 23.728C12.2678 20.8162 12.2678 16.0955 15.1967 13.1838C18.1256 10.2721 22.8743 10.2721 25.8033 13.1838C28.7322 16.0955 28.7322 20.8162 25.8033 23.728L20.5 29ZM20.5 20.1127C21.4205 20.1127 22.1667 19.3709 22.1667 18.4559C22.1667 17.5408 21.4205 16.799 20.5 16.799C19.5795 16.799 18.8333 17.5408 18.8333 18.4559C18.8333 19.3709 19.5795 20.1127 20.5 20.1127ZM20.5 21.7696C18.659 21.7696 17.1667 20.2859 17.1667 18.4559C17.1667 16.6257 18.659 15.1421 20.5 15.1421C22.3409 15.1421 23.8333 16.6257 23.8333 18.4559C23.8333 20.2859 22.3409 21.7696 20.5 21.7696Z" fill="#180E54"/>
</svg>
