<svg width="15" height="18" viewBox="0 0 15 18" fill="none" xmlns="http://www.w3.org/2000/svg">
<path d="M7.52004 1.63403C4.83778 1.63403 2.65795 3.81386 2.65795 6.49609V8.83799C2.65795 9.3323 2.44726 10.0859 2.19605 10.5073L1.26415 12.0551C0.688799 13.0113 1.08587 14.0728 2.13932 14.4294C5.63192 15.5963 9.40004 15.5963 12.8926 14.4294C13.8732 14.1052 14.3027 12.9464 13.7678 12.0551L12.8359 10.5073C12.5928 10.0859 12.3821 9.3323 12.3821 8.83799V6.49609C12.3821 3.82196 10.1942 1.63403 7.52004 1.63403Z" stroke="#42526B" stroke-width="1.5" stroke-miterlimit="10" stroke-linecap="round"/>
<path d="M9.01874 1.86893C8.76753 1.796 8.50822 1.73928 8.2408 1.70686C7.46287 1.60962 6.71735 1.66635 6.02045 1.86893C6.25545 1.26928 6.8389 0.8479 7.51959 0.8479C8.20028 0.8479 8.78373 1.26928 9.01874 1.86893Z" stroke="#42526B" stroke-width="1.5" stroke-miterlimit="10" stroke-linecap="round" stroke-linejoin="round"/>
<path d="M9.95102 14.7212C9.95102 16.0583 8.85705 17.1522 7.51997 17.1522C6.85549 17.1522 6.23962 16.8767 5.80203 16.4391C5.36445 16.0015 5.08893 15.3857 5.08893 14.7212" stroke="#42526B" stroke-width="1.5" stroke-miterlimit="10"/>
</svg>
