<svg width="40" height="40" viewBox="0 0 40 40" fill="none" xmlns="http://www.w3.org/2000/svg">
<rect width="40" height="40" rx="12" fill="#E8EAFA"/>
<path d="M18.3046 18.4018C19.085 19.774 20.226 20.915 21.5982 21.6953L22.3353 20.6634C22.5804 20.3204 23.043 20.2144 23.413 20.4165C24.5853 21.0569 25.8809 21.4461 27.2324 21.5531C27.6658 21.5874 28 21.9491 28 22.3838V26.1028C28 26.5301 27.6768 26.8881 27.2518 26.9318C26.8102 26.9772 26.3647 27 25.9167 27C18.783 27 13 21.217 13 14.0833C13 13.6352 13.0229 13.1898 13.0682 12.7481C13.1119 12.3231 13.47 12 13.8972 12H17.6162C18.0509 12 18.4126 12.3342 18.4469 12.7676C18.5539 14.1191 18.9431 15.4147 19.5835 16.587C19.7856 16.957 19.6796 17.4196 19.3366 17.6646L18.3046 18.4018ZM16.2035 17.8543L17.7868 16.7234C17.3379 15.7543 17.0302 14.7265 16.8727 13.6667H14.6742C14.6692 13.8053 14.6667 13.9442 14.6667 14.0833C14.6667 20.2965 19.7035 25.3333 25.9167 25.3333C26.0558 25.3333 26.1947 25.3308 26.3333 25.3257V23.1272C25.2735 22.9697 24.2457 22.6621 23.2766 22.2132L22.1457 23.7965C21.6882 23.6187 21.2463 23.4096 20.8228 23.1717L20.7744 23.1442C19.1414 22.2156 17.7844 20.8586 16.8558 19.2256L16.8283 19.1772C16.5904 18.7537 16.3813 18.3118 16.2035 17.8543Z" fill="#180E54"/>
</svg>
