<svg width="16" height="14" viewBox="0 0 16 14" fill="none" xmlns="http://www.w3.org/2000/svg">
<path d="M13.25 7.3499C13.25 6.3839 14.034 5.5999 15 5.5999V4.8999C15 2.0999 14.3 1.3999 11.5 1.3999H4.5C1.7 1.3999 1 2.0999 1 4.8999V5.2499C1.966 5.2499 2.75 6.0339 2.75 6.9999C2.75 7.9659 1.966 8.7499 1 8.7499V9.0999C1 11.8999 1.7 12.5999 4.5 12.5999H11.5C14.3 12.5999 15 11.8999 15 9.0999C14.034 9.0999 13.25 8.3159 13.25 7.3499Z" stroke="#42526B" stroke-width="1.5" stroke-linecap="round" stroke-linejoin="round"/>
<path d="M6.59998 1.3999L6.59998 12.5999" stroke="#42526B" stroke-width="1.5" stroke-linecap="round" stroke-linejoin="round" stroke-dasharray="5 5"/>
</svg>
